<svg width="620" height="80" version="1.1" viewBox="0 0 164.04 21.167" xmlns="http://www.w3.org/2000/svg"><g transform="matrix(2.0379 0 0 2.0381 -132.11 -205.11)" stroke-width=".12982" aria-label="FASHIONISTA"><path d="m71.87 100.84q-0.05644 0.53622-0.08467 1.0442-0.01411 0.49388-0.01411 0.76199 0 0.33866 0.01411 0.63499 0.01411 0.29634 0.02822 0.52211h-0.32455q-0.09878-0.98777-0.26811-1.5522-0.16933-0.57855-0.59266-0.83255t-1.3123-0.254h-0.88899q-0.47977 0-0.73377 0.0847-0.23989 0.0706-0.32455 0.32455-0.08467 0.23989-0.08467 0.762v6.999q0 0.508 0.09878 0.762 0.11289 0.254 0.42333 0.33866 0.31044 0.0847 0.9031 0.11289v0.28222q-0.36689-0.0282-0.93133-0.0282-0.56444-0.0141-1.143-0.0141-0.55033 0-1.0301 0.0141-0.47977 0-0.7761 0.0282v-0.28222q0.47977-0.0282 0.71966-0.11289 0.254-0.0847 0.33866-0.33866 0.08467-0.254 0.08467-0.762v-6.999q0-0.52211-0.08467-0.762-0.08467-0.25399-0.33866-0.33866-0.23989-0.0988-0.71966-0.11289v-0.28222q0.69144 0.0141 1.4817 0.0282t1.4817 0.0141q0.70555 0 1.1289 0 0.64911 0 1.4675 0 0.83255-0.0141 1.4817-0.0423zm-2.1872 4.9671t0 0.14111 0 0.14111h-2.8222t0-0.14111 0-0.14111zm0.26811-1.8626q-0.05644 0.80433-0.05644 1.2277 0.01411 0.42333 0.01411 0.7761 0 0.35278 0.01411 0.77611t0.07055 1.2277h-0.32455q-0.05644-0.45156-0.14111-0.87489-0.07055-0.43744-0.33866-0.70555-0.254-0.28222-0.87488-0.28222v-0.28222q0.62088 0 0.86077-0.32455 0.254-0.32455 0.32455-0.76199 0.07055-0.43744 0.127-0.77611z"/><path d="m75.381 100.77 3.4431 8.8758q0.21166 0.53621 0.47977 0.71966 0.26811 0.16933 0.49388 0.18344v0.28222q-0.28222-0.0282-0.69144-0.0282-0.40922-0.0141-0.81844-0.0141-0.55033 0-1.0301 0.0141-0.47977 0-0.7761 0.0282v-0.28222q0.71966-0.0282 0.91722-0.23989 0.19755-0.22577-0.08467-0.94543l-2.6246-7.0132 0.22578-0.18344-2.4553 6.3782q-0.29633 0.76199-0.28222 1.1994 0.01411 0.42333 0.32455 0.60678 0.31044 0.18344 0.9031 0.19755v0.28222q-0.39511-0.0282-0.83255-0.0282-0.42333-0.0141-0.79022-0.0141-0.35278 0-0.60677 0.0141-0.23989 0-0.45155 0.0282v-0.28222q0.28222-0.0706 0.57855-0.32455 0.29633-0.26811 0.53622-0.90311l3.3161-8.5513q0.05644 0 0.11289 0 0.05644 0 0.11289 0zm1.7215 5.9972v0.28222h-4.2051l0.14111-0.28222z"/><path d="m83.031 100.68q0.70555 0 1.0724 0.16933 0.36689 0.15522 0.64911 0.35278 0.16933 0.0988 0.26811 0.15522 0.11289 0.0423 0.21166 0.0423 0.22578 0 0.31044-0.62088h0.32455q-0.01411 0.23988-0.04233 0.57855-0.01411 0.32455-0.02822 0.87488 0 0.53622 0 1.4252h-0.32455q-0.04233-0.67733-0.29633-1.2982-0.254-0.62088-0.74788-1.016-0.47977-0.39511-1.27-0.39511-0.74788 0-1.2418 0.45155-0.47977 0.45155-0.47977 1.1853 0 0.63499 0.32455 1.0724 0.32455 0.42333 0.86077 0.77611 0.55033 0.33866 1.1853 0.73377 0.73377 0.45155 1.2982 0.9031 0.57855 0.43744 0.9031 0.97366 0.33866 0.53622 0.33866 1.2982 0 0.90311-0.40922 1.4958t-1.0865 0.88899-1.4958 0.29633q-0.74788 0-1.1853-0.16933t-0.74788-0.35277q-0.31044-0.19756-0.47977-0.19756-0.22578 0-0.31044 0.62089h-0.32455q0.02822-0.29633 0.02822-0.69144 0.01411-0.40922 0.01411-1.0583 0.01411-0.6491 0.01411-1.6369h0.32455q0.05644 0.84666 0.31044 1.5804 0.26811 0.73377 0.80433 1.1853 0.55033 0.43744 1.4534 0.43744 0.69144 0 1.2559-0.43744 0.57855-0.45155 0.57855-1.4393 0-0.86077-0.60677-1.4252t-1.5945-1.1571q-0.66322-0.40922-1.2418-0.83255t-0.93133-0.97366q-0.33866-0.56444-0.33866-1.3547 0-0.83255 0.36689-1.3688 0.381-0.55033 0.98777-0.80433 0.60677-0.26811 1.2982-0.26811z"/><path d="m92.236 110.83v-0.28222q0.47977-0.0282 0.71966-0.11289 0.254-0.0847 0.33866-0.33866 0.08467-0.254 0.08467-0.762v-6.999q0-0.52211-0.08467-0.762-0.08467-0.25399-0.33866-0.33866-0.23989-0.0988-0.71966-0.11289v-0.28222q0.32455 0.0141 0.81844 0.0282t0.97366 0.0141q0.55033 0 1.0301-0.0141t0.7761-0.0282v0.28222q-0.47977 0.0141-0.73377 0.11289-0.23989 0.0847-0.32455 0.33866-0.08467 0.23989-0.08467 0.762v6.999q0 0.508 0.08467 0.762t0.32455 0.33866q0.254 0.0847 0.73377 0.11289v0.28222q-0.29633-0.0282-0.7761-0.0282-0.47977-0.0141-1.0301-0.0141-0.47977 0-0.97366 0.0141-0.49388 0-0.81844 0.0282zm-5.8984 0v-0.28222q0.47977-0.0282 0.71966-0.11289 0.254-0.0847 0.33866-0.33866 0.08467-0.254 0.08467-0.762v-6.999q0-0.52211-0.08467-0.762-0.08467-0.25399-0.33866-0.33866-0.23989-0.0988-0.71966-0.11289v-0.28222q0.29633 0.0141 0.7761 0.0282t1.0301 0.0141q0.49388 0 0.97366-0.0141 0.49388-0.0141 0.81844-0.0282v0.28222q-0.47977 0.0141-0.73377 0.11289-0.23989 0.0847-0.32455 0.33866-0.08467 0.23989-0.08467 0.762v6.999q0 0.508 0.08467 0.762t0.32455 0.33866q0.254 0.0847 0.73377 0.11289v0.28222q-0.32455-0.0282-0.81844-0.0282-0.47977-0.0141-0.97366-0.0141-0.55033 0-1.0301 0.0141-0.47977 0-0.7761 0.0282zm1.9614-4.8824v-0.28222h5.5738v0.28222z"/><path d="m99.824 100.84v0.28222q-0.47977 0.0141-0.73377 0.11289-0.23989 0.0847-0.32455 0.33866-0.08467 0.23989-0.08467 0.762v6.999q0 0.508 0.08467 0.762t0.32455 0.33866q0.254 0.0847 0.73377 0.11289v0.28222q-0.32455-0.0282-0.81844-0.0282-0.47977-0.0141-0.97366-0.0141-0.55033 0-1.0301 0.0141-0.47977 0-0.7761 0.0282v-0.28222q0.47977-0.0282 0.71966-0.11289 0.254-0.0847 0.33866-0.33866 0.08467-0.254 0.08467-0.762v-6.999q0-0.52211-0.08467-0.762-0.08467-0.25399-0.33866-0.33866-0.23989-0.0988-0.71966-0.11289v-0.28222q0.29633 0.0141 0.7761 0.0282t1.0301 0.0141q0.49388 0 0.97366-0.0141 0.49388-0.0141 0.81844-0.0282z"/><path d="m104.75 100.64q1.3406 0 2.3424 0.60677 1.016 0.60677 1.5663 1.7498 0.56444 1.1289 0.56444 2.7516 0 1.5804-0.57855 2.7658-0.56444 1.1853-1.5804 1.8485-1.016 0.66321-2.3283 0.66321-1.3406 0-2.3565-0.60677-1.0019-0.60677-1.5663-1.7498-0.55033-1.143-0.55033-2.7516 0-1.5804 0.57855-2.7658 0.57855-1.1853 1.5804-1.8486 1.016-0.66321 2.3283-0.66321zm-0.0564 0.254q-0.91722 0-1.5946 0.63499-0.67732 0.635-1.0583 1.7498-0.36689 1.1148-0.36689 2.5823 0 1.4958 0.40922 2.6105 0.42333 1.1007 1.1289 1.7074 0.71966 0.59267 1.5804 0.59267 0.91722 0 1.5946-0.635 0.67732-0.63499 1.0442-1.7498 0.381-1.1289 0.381-2.5823 0-1.5099-0.42333-2.6105-0.40922-1.1007-1.1148-1.6933-0.70555-0.60677-1.5804-0.60677z"/><path d="m118.51 100.84v0.28222q-0.47977 0.0141-0.73377 0.14111-0.23989 0.127-0.32455 0.40922-0.0847 0.28222-0.0847 0.80433v8.4243q-0.0847 0-0.16933 0-0.0706 0-0.15522 0l-5.9266-9.158v7.4506q0 0.508 0.0847 0.80433 0.0988 0.28222 0.36689 0.40922 0.28222 0.11289 0.83255 0.14111v0.28222q-0.254-0.0282-0.66322-0.0282-0.40922-0.0141-0.7761-0.0141-0.35278 0-0.71966 0.0141-0.35278 0-0.59267 0.0282v-0.28222q0.47978-0.0282 0.71967-0.14111 0.25399-0.127 0.33866-0.40922 0.0847-0.29633 0.0847-0.80433v-6.8579q0-0.52211-0.0847-0.762-0.0847-0.25399-0.33866-0.33866-0.23989-0.0988-0.71967-0.11289v-0.28222q0.23989 0.0141 0.59267 0.0282 0.36688 0.0141 0.71966 0.0141 0.31044 0 0.59266-0.0141t0.508-0.0282l4.9812 7.6764v-6.0395q0-0.52211-0.0988-0.80433-0.0847-0.28222-0.36688-0.40922-0.26811-0.127-0.81844-0.14111v-0.28222q0.254 0.0141 0.66321 0.0282 0.42333 0.0141 0.77611 0.0141 0.36689 0 0.71966-0.0141 0.36689-0.0141 0.59266-0.0282z"/><path d="m122.42 100.84v0.28222q-0.47977 0.0141-0.73377 0.11289-0.23989 0.0847-0.32456 0.33866-0.0847 0.23989-0.0847 0.762v6.999q0 0.508 0.0847 0.762t0.32456 0.33866q0.254 0.0847 0.73377 0.11289v0.28222q-0.32455-0.0282-0.81844-0.0282-0.47977-0.0141-0.97366-0.0141-0.55033 0-1.0301 0.0141-0.47977 0-0.77611 0.0282v-0.28222q0.47978-0.0282 0.71967-0.11289 0.25399-0.0847 0.33866-0.33866 0.0847-0.254 0.0847-0.762v-6.999q0-0.52211-0.0847-0.762-0.0847-0.25399-0.33866-0.33866-0.23989-0.0988-0.71967-0.11289v-0.28222q0.29634 0.0141 0.77611 0.0282t1.0301 0.0141q0.49389 0 0.97366-0.0141 0.49389-0.0141 0.81844-0.0282z"/><path d="m125.83 100.68q0.70555 0 1.0724 0.16933 0.36689 0.15522 0.64911 0.35278 0.16933 0.0988 0.26811 0.15522 0.11289 0.0423 0.21166 0.0423 0.22578 0 0.31045-0.62088h0.32455q-0.0141 0.23988-0.0423 0.57855-0.0141 0.32455-0.0282 0.87488 0 0.53622 0 1.4252h-0.32455q-0.0423-0.67733-0.29633-1.2982-0.254-0.62088-0.74788-1.016-0.47978-0.39511-1.27-0.39511-0.74789 0-1.2418 0.45155-0.47977 0.45155-0.47977 1.1853 0 0.63499 0.32455 1.0724 0.32455 0.42333 0.86077 0.77611 0.55033 0.33866 1.1853 0.73377 0.73378 0.45155 1.2982 0.9031 0.57855 0.43744 0.9031 0.97366 0.33866 0.53622 0.33866 1.2982 0 0.90311-0.40922 1.4958-0.40921 0.59266-1.0865 0.88899t-1.4958 0.29633q-0.74788 0-1.1853-0.16933t-0.74789-0.35277q-0.31044-0.19756-0.47977-0.19756-0.22578 0-0.31044 0.62089h-0.32455q0.0282-0.29633 0.0282-0.69144 0.0141-0.40922 0.0141-1.0583 0.0141-0.6491 0.0141-1.6369h0.32455q0.0564 0.84666 0.31044 1.5804 0.26811 0.73377 0.80433 1.1853 0.55033 0.43744 1.4534 0.43744 0.69144 0 1.2559-0.43744 0.57855-0.45155 0.57855-1.4393 0-0.86077-0.60677-1.4252t-1.5945-1.1571q-0.66322-0.40922-1.2418-0.83255t-0.93133-0.97366q-0.33866-0.56444-0.33866-1.3547 0-0.83255 0.36689-1.3688 0.38099-0.55033 0.98777-0.80433 0.60677-0.26811 1.2982-0.26811z"/><path d="m137.4 100.84q-0.0564 0.53622-0.0847 1.0442-0.0141 0.49388-0.0141 0.76199 0 0.33866 0.0141 0.63499 0.0141 0.29634 0.0282 0.52211h-0.32455q-0.0988-0.98777-0.26811-1.5522-0.16933-0.57855-0.59266-0.83255t-1.3123-0.254h-0.76199v8.0292q0 0.56444 0.0988 0.84666 0.11288 0.28222 0.42333 0.381 0.31044 0.0988 0.9031 0.127v0.28222q-0.36689-0.0282-0.93133-0.0282-0.56444-0.0141-1.143-0.0141-0.63499 0-1.1994 0.0141-0.55033 0-0.88899 0.0282v-0.28222q0.59266-0.0282 0.9031-0.127t0.40922-0.381q0.11289-0.28222 0.11289-0.84666v-8.0292h-0.762q-0.87488 0-1.3123 0.254-0.42333 0.254-0.59266 0.83255-0.16933 0.56444-0.26811 1.5522h-0.32455q0.0282-0.22577 0.0282-0.52211 0.0141-0.29633 0.0141-0.63499 0-0.26811-0.0282-0.76199-0.0141-0.508-0.0706-1.0442 0.59266 0.0141 1.2841 0.0282 0.70555 0.0141 1.4111 0.0141t1.2841 0 1.27 0q0.70555 0 1.4111-0.0141t1.2841-0.0282z"/><path d="m140.91 100.77 3.4431 8.8758q0.21167 0.53621 0.47978 0.71966 0.26811 0.16933 0.49388 0.18344v0.28222q-0.28222-0.0282-0.69144-0.0282-0.40922-0.0141-0.81844-0.0141-0.55032 0-1.0301 0.0141-0.47977 0-0.7761 0.0282v-0.28222q0.71966-0.0282 0.91721-0.23989 0.19756-0.22577-0.0847-0.94543l-2.6246-7.0132 0.22578-0.18344-2.4553 6.3782q-0.29633 0.76199-0.28222 1.1994 0.0141 0.42333 0.32455 0.60678 0.31045 0.18344 0.90311 0.19755v0.28222q-0.39511-0.0282-0.83255-0.0282-0.42333-0.0141-0.79022-0.0141-0.35277 0-0.60677 0.0141-0.23989 0-0.45155 0.0282v-0.28222q0.28222-0.0706 0.57855-0.32455 0.29633-0.26811 0.53622-0.90311l3.3161-8.5513q0.0564 0 0.11289 0 0.0564 0 0.11289 0zm1.7215 5.9972v0.28222h-4.2051l0.14111-0.28222z"/></g></svg>
